<svg xmlns="http://www.w3.org/2000/svg" xmlns:xlink="http://www.w3.org/1999/xlink" version="1.1" id="Layer_1" x="0px" y="0px" width="100px" height="74.7058823529px" viewBox="0 0 170.078 127.56" enable-background="new 0 0 170.078 127.56" xml:space="preserve">
<path fill-rule="evenodd" clip-rule="evenodd" d="M14.173,14.173h8.504C28.346,14.173,28.346,0,34.016,0h5.67H39.7h0.042h0.07h0.051  h0.046h0.123h0.062h0.086h0.141h0.032h0.192h0.004h0.216h0.003h0.214h0.027h0.185h0.077h0.133h0.15h0.055h0.202h0.045h0.152h0.169  h0.023h0.188h0.128h0.056h0.179h0.122h0.053h0.169h0.151h0.014h0.159h0.154h0.063h0.086h0.144h0.137h0.038h0.093h0.125h0.12h0.081  h0.032h0.107H44.7h0.093h0.087h0.012h0.068h0.073h0.066h0.058h0.051h0.044h0.036h0.028h0.021h0h0.012h0.004h19.843  c5.669,0,5.669,14.173,11.338,14.173h53.858c0-3.13,2.539-5.669,5.669-5.669h5.67c3.13,0,5.669,2.539,5.669,5.669h8.504  c7.826,0,14.173,6.347,14.173,14.173v85.039c0,7.827-6.347,14.174-14.173,14.174H14.173C6.347,127.56,0,121.213,0,113.386V28.347  C0,20.52,6.347,14.173,14.173,14.173L14.173,14.173z M113.386,28.347c-23.479,0-42.52,19.041-42.52,42.52  c0,23.479,19.04,42.52,42.52,42.52c23.479,0,42.52-19.04,42.52-42.52C155.905,47.387,136.864,28.347,113.386,28.347L113.386,28.347z   M34.016,42.52h17.008c3.13,0,5.669-2.539,5.669-5.669v-2.834c0-3.131-2.539-5.669-5.669-5.669H34.016  c-3.131,0-5.669,2.539-5.669,5.669v2.834C28.346,39.981,30.885,42.52,34.016,42.52z"/>
<path fill-rule="evenodd" clip-rule="evenodd" d="M113.386,39.685c-17.218,0-31.181,13.963-31.181,31.181  s13.963,31.182,31.181,31.182s31.181-13.964,31.181-31.182S130.604,39.685,113.386,39.685L113.386,39.685z"/>
</svg>